<svg xmlns="http://www.w3.org/2000/svg" xmlns:xlink="http://www.w3.org/1999/xlink" width="100" zoomAndPan="magnify" viewBox="0 0 75 74.999997" height="100" preserveAspectRatio="xMidYMid meet" version="1.0"><defs><g><g id="id1"/></g></defs><path fill="rgb(14.118958%, 10.5896%, 14.898682%)" d="M 17.078125 16.023438 L 57.570312 16.023438 L 57.570312 33.273438 L 17.078125 33.273438 L 17.078125 16.023438 " fill-opacity="1" fill-rule="nonzero"/><g fill="rgb(42.349243%, 21.179199%, 100%)" fill-opacity="1"><g transform="translate(11.622399, 23.972034)"><g><path d="M 25.3125 11.625 C 19.570312 11.625 14 12.363281 8.59375 13.84375 C 3.1875 15.320312 -1.96875 17.457031 -6.875 20.25 C -7.175781 20.40625 -7.429688 20.507812 -7.640625 20.5625 C -7.859375 20.613281 -8.078125 20.640625 -8.296875 20.640625 C -8.671875 20.640625 -8.976562 20.546875 -9.21875 20.359375 C -9.457031 20.171875 -9.671875 19.929688 -9.859375 19.640625 L -11.796875 16.46875 C -8.710938 14.445312 -5.648438 12.734375 -2.609375 11.328125 C 0.421875 9.921875 3.460938 8.78125 6.515625 7.90625 C 9.578125 7.03125 12.65625 6.390625 15.75 5.984375 C 18.851562 5.585938 22.039062 5.390625 25.3125 5.390625 C 28.5625 5.390625 31.742188 5.585938 34.859375 5.984375 C 37.972656 6.390625 41.050781 7.03125 44.09375 7.90625 C 47.132812 8.78125 50.171875 9.921875 53.203125 11.328125 C 56.242188 12.734375 59.316406 14.445312 62.421875 16.46875 L 60.453125 19.640625 C 60.265625 19.929688 60.050781 20.171875 59.8125 20.359375 C 59.570312 20.546875 59.265625 20.640625 58.890625 20.640625 C 58.484375 20.640625 58.023438 20.507812 57.515625 20.25 C 52.628906 17.425781 47.476562 15.28125 42.0625 13.8125 C 36.644531 12.351562 31.0625 11.625 25.3125 11.625 Z M 25.3125 11.625 "/></g></g></g><path fill="rgb(42.349243%, 21.179199%, 100%)" d="M 17.042969 1.414062 L 22.941406 2.5 L 16.699219 36.417969 L 10.796875 35.332031 L 17.042969 1.414062 " fill-opacity="1" fill-rule="nonzero"/><path fill="rgb(42.349243%, 21.179199%, 100%)" d="M 51.511719 2.5625 L 57.410156 1.480469 L 63.652344 35.398438 L 57.75 36.484375 L 51.511719 2.5625 " fill-opacity="1" fill-rule="nonzero"/><path fill="rgb(14.118958%, 10.5896%, 14.898682%)" d="M 16.957031 50.558594 C 12.195312 50.558594 8.332031 54.417969 8.332031 59.183594 C 8.332031 63.945312 12.195312 67.808594 16.957031 67.808594 C 21.722656 67.808594 25.582031 63.945312 25.582031 59.183594 C 25.582031 54.417969 21.722656 50.558594 16.957031 50.558594 " fill-opacity="1" fill-rule="nonzero"/><path fill="rgb(42.349243%, 21.179199%, 100%)" d="M 18.695312 73.699219 C 10.78125 73.699219 4.320312 67.238281 4.320312 59.304688 C 4.320312 51.390625 10.78125 44.929688 18.695312 44.929688 C 26.628906 44.929688 33.066406 51.390625 33.066406 59.304688 C 33.089844 67.238281 26.628906 73.699219 18.695312 73.699219 Z M 18.695312 52.84375 C 15.144531 52.84375 12.234375 55.753906 12.234375 59.304688 C 12.234375 62.855469 15.144531 65.761719 18.695312 65.761719 C 22.246094 65.761719 25.152344 62.855469 25.152344 59.304688 C 25.152344 55.753906 22.265625 52.84375 18.695312 52.84375 Z M 18.695312 52.84375 " fill-opacity="1" fill-rule="nonzero"/><path fill="rgb(14.118958%, 10.5896%, 14.898682%)" d="M 57.65625 50.558594 C 52.894531 50.558594 49.03125 54.417969 49.03125 59.183594 C 49.03125 63.945312 52.894531 67.808594 57.65625 67.808594 C 62.421875 67.808594 66.28125 63.945312 66.28125 59.183594 C 66.28125 54.417969 62.421875 50.558594 57.65625 50.558594 " fill-opacity="1" fill-rule="nonzero"/><path fill="rgb(42.349243%, 21.179199%, 100%)" d="M 56.121094 73.699219 C 48.207031 73.699219 41.746094 67.238281 41.746094 59.304688 C 41.746094 51.390625 48.207031 44.929688 56.121094 44.929688 C 64.054688 44.929688 70.496094 51.390625 70.496094 59.304688 C 70.515625 67.238281 64.054688 73.699219 56.121094 73.699219 Z M 56.121094 52.84375 C 52.570312 52.84375 49.660156 55.753906 49.660156 59.304688 C 49.660156 62.855469 52.570312 65.761719 56.121094 65.761719 C 59.671875 65.761719 62.578125 62.855469 62.578125 59.304688 C 62.578125 55.753906 59.691406 52.84375 56.121094 52.84375 Z M 56.121094 52.84375 " fill-opacity="1" fill-rule="nonzero"/><path fill="rgb(42.349243%, 21.179199%, 100%)" d="M 17.15625 1.40625 L 57.648438 1.40625 L 57.648438 18.65625 L 17.15625 18.65625 L 17.15625 1.40625 " fill-opacity="1" fill-rule="nonzero"/></svg>
